<svg width="32" height="32" fill="none" xmlns="http://www.w3.org/2000/svg"><g clip-path="url(#clip0)" fill="#29F5C4" fill-opacity=".75"><path d="M19.853 12.147a.625.625 0 10-.884.885.625.625 0 00.884-.885z"/><path d="M31.267 12.223l-.884-.883c.033-.048.991-.828.991-2.285 0-.835-.325-1.62-.915-2.21l-.442-.442.441-.442a3.122 3.122 0 000-4.419 3.121 3.121 0 00-4.418 0l-.442.442-.442-.442a3.122 3.122 0 00-4.42 0l-.075.076-.884-.884a2.498 2.498 0 00-3.535 0 2.498 2.498 0 000 3.535l3.535 3.535L7.803 19.778l-3.535-3.535a2.498 2.498 0 00-3.535 0 2.499 2.499 0 000 3.535l.883.884-.075.075a3.122 3.122 0 000 4.42l.442.442-.442.442a3.122 3.122 0 000 4.419 3.122 3.122 0 004.419 0l.442-.442.442.442a3.122 3.122 0 004.42 0l.075-.076.883.884a2.498 2.498 0 003.536 0 2.498 2.498 0 000-3.535l-3.535-3.535 11.973-11.974 3.535 3.535a2.498 2.498 0 003.536 0 2.499 2.499 0 000-3.536zm-4.343-9.797a1.872 1.872 0 012.651 0 1.872 1.872 0 010 2.651l-.442.442-2.651-2.651.442-.442zm-5.304 0a1.873 1.873 0 012.652 0l5.303 5.303a1.873 1.873 0 010 2.651l-.076.076-7.954-7.955.075-.075zM5.076 29.576a1.872 1.872 0 01-2.652 0 1.872 1.872 0 010-2.651l.443-.442 2.651 2.651-.442.442zm5.303 0a1.873 1.873 0 01-2.651 0l-5.303-5.303a1.873 1.873 0 010-2.652l.075-.075 7.955 7.954-.076.076zm4.495-.959a1.249 1.249 0 11-1.768 1.767l-11.49-11.49a1.25 1.25 0 111.768-1.767l11.49 11.49zm-3.535-5.303l-2.652-2.652L20.661 8.688l2.651 2.652L11.34 23.314zm19.044-8.438a1.248 1.248 0 01-1.767 0L17.126 3.384a1.25 1.25 0 111.768-1.767l11.489 11.49a1.25 1.25 0 010 1.768z"/><path d="M18.085 13.915a.625.625 0 00-.884 0l-5.054 5.054a.625.625 0 00.884.884l5.054-5.054a.625.625 0 000-.884z"/></g><defs><clipPath id="clip0"><path fill="#fff" d="M0 0h32v32H0z"/></clipPath></defs></svg>