<svg width="32" height="32" fill="none" xmlns="http://www.w3.org/2000/svg"><path d="M26.483 3.93c0-.913-.741-1.655-1.655-1.655h-1.655a1.655 1.655 0 00-3.31 0h-2.208a1.655 1.655 0 00-3.31 0h-2.207a1.655 1.655 0 00-3.31 0H6.62a1.655 1.655 0 00-3.31 0H1.654C.741 2.275 0 3.017 0 3.931v23.172c0 .305.247.552.552.552h1.655v1.655c0 .305.247.552.552.552h14.528c.008 0 .013-.004.02-.004A9.372 9.372 0 1026.483 13.6V3.93zm-5.517-1.655a.552.552 0 111.103 0v1.656h-1.103V2.275zm-5.518 0a.552.552 0 111.104 0v1.656h-1.104V2.275zm-5.517 0a.552.552 0 011.104 0v1.656H9.93V2.275zm-5.517 0a.552.552 0 011.103 0v1.656H4.414V2.275zm-3.31 1.656c0-.305.246-.552.551-.552H3.31v1.103c0 .305.247.552.552.552H6.07a.552.552 0 00.552-.552V3.38h2.207v1.103c0 .305.247.552.551.552h2.207a.552.552 0 00.552-.552V3.38h2.207v1.103c0 .305.247.552.552.552h2.207a.552.552 0 00.551-.552V3.38h2.207v1.103c0 .305.247.552.552.552h2.207a.552.552 0 00.552-.552V3.38h1.655c.305 0 .552.247.552.552V6.69H1.103V3.931zM3.31 27.655h11.743c.281.391.593.76.931 1.104H3.31v-1.104zm27.587-5.517a8.276 8.276 0 11-8.276-8.276 8.285 8.285 0 018.276 8.276zm-8.276-9.38a9.373 9.373 0 00-8.272 13.794H1.103V7.792H25.38v5.382a9.354 9.354 0 00-2.759-.416z" fill="#29F5C4" fill-opacity=".75"/><path d="M4.965 10a1.655 1.655 0 100 3.31 1.655 1.655 0 000-3.31zm0 2.207a.552.552 0 110-1.104.552.552 0 010 1.104zM10.483 10a1.655 1.655 0 100 3.31 1.655 1.655 0 000-3.31zm0 2.207a.552.552 0 110-1.104.552.552 0 010 1.104zM16 10a1.655 1.655 0 100 3.31A1.655 1.655 0 0016 10zm0 2.207a.552.552 0 110-1.104.552.552 0 010 1.104zM4.965 14.414a1.655 1.655 0 100 3.31 1.655 1.655 0 000-3.31zm0 2.206a.552.552 0 110-1.103.552.552 0 010 1.103zm5.518-2.206a1.655 1.655 0 100 3.31 1.655 1.655 0 000-3.31zm0 2.206a.552.552 0 110-1.103.552.552 0 010 1.103zm-5.518 2.207a1.655 1.655 0 100 3.311 1.655 1.655 0 000-3.31zm0 2.207a.552.552 0 110-1.103.552.552 0 010 1.103zm5.518-2.207a1.655 1.655 0 100 3.31 1.655 1.655 0 000-3.31zm0 2.207a.552.552 0 110-1.103.552.552 0 010 1.103zm4.965 1.104a7.173 7.173 0 107.173-7.173 7.18 7.18 0 00-7.172 7.173zm13.242 0h-1.103a.552.552 0 100 1.103h.998a6.077 6.077 0 01-5.412 4.938v-1.076a.552.552 0 10-1.104 0v1.076a6.077 6.077 0 01-5.412-4.938h.998a.552.552 0 100-1.103h-1.103a6.074 6.074 0 015.517-6.041v1.075a.552.552 0 101.104 0v-1.075a6.074 6.074 0 015.517 6.04z" fill="#29F5C4" fill-opacity=".75"/><path d="M22.74 21.873l-.763-1.145a.552.552 0 00-.919.613l1.104 1.655a.554.554 0 00.812.118l3.31-2.759a.552.552 0 10-.706-.849l-2.838 2.367z" fill="#29F5C4" fill-opacity=".75"/></svg>