<svg width="32" height="32" fill="none" xmlns="http://www.w3.org/2000/svg"><g clip-path="url(#clip0)" fill="#29F5C4" fill-opacity=".75"><path d="M30.658 24.153c-.464-2.683-2.528-4.799-5.211-5.366l-5.728-1.239h-.103v-3.25a6.21 6.21 0 002.58-5.006V6.196c0-3.406-2.787-6.192-6.192-6.192-3.406 0-6.192 2.786-6.192 6.192v3.096c0 2.013.98 3.87 2.58 5.005v3.251h-.103L6.56 18.735c-2.683.567-4.747 2.683-5.212 5.366l-1.34 7.276c-.052.258.155.568.413.62h31.063c.31 0 .516-.207.516-.517v-.103l-1.342-7.224zM16.004 1.036c2.477 0 4.54 1.703 5.057 4.128H10.947c.516-2.425 2.58-4.128 5.057-4.128zm4.953 5.16L19.41 7.744H12.6l-1.55-1.548h9.907zM10.844 9.292V7.434l1.187 1.187a.468.468 0 00.36.155h7.225a.468.468 0 00.361-.155l1.187-1.187v1.858c0 2.838-2.322 5.16-5.16 5.16s-5.16-2.322-5.16-5.16zm7.74 5.624v3.458l-.361.36c-.568.568-1.394.93-2.168.93h-.103c-.825 0-1.6-.31-2.167-.93l-.361-.36v-3.457c.825.36 1.703.567 2.58.567s1.754-.206 2.58-.568zm-7.224 3.922l.877-.206.774.825c.774.774 1.806 1.187 2.941 1.187h.103c1.084 0 2.168-.413 2.942-1.187l.825-.825.877.206v1.651l-2.734 3.612c-.93-1.083-2.529-1.186-3.613-.258l-.258.258-2.734-3.612v-1.65zm4.644 8.514a1.52 1.52 0 01-1.548-1.548c0-.877.67-1.548 1.548-1.548.877 0 1.548.67 1.548 1.548V28.9H16.52v-1.032c0-.31-.207-.516-.516-.516zm-8.256 3.612H1.143l.206-1.032h6.399v1.032zm15.48.052H8.78v-6.76H7.748V28.9H1.504l.826-4.592a5.672 5.672 0 014.437-4.541l3.56-.774v1.651c0 .103.052.207.104.31l3.096 4.128a3.045 3.045 0 00-.103.722c0 1.239.877 2.27 2.064 2.529v1.083c0 .31.206.516.516.516h2.064c.31 0 .516-.206.516-.516v-3.612a3.07 3.07 0 00-.103-.722l3.096-4.128c.051-.104.103-.207.103-.31v-1.6l3.56.774a5.672 5.672 0 014.438 4.541l.825 4.593H24.26v-4.644h-1.032v6.708zm1.032-.052v-1.032h6.398l.207 1.032H24.26z"/><path d="M16.52 25.288h-1.032v1.032h1.032v-1.032z"/></g><defs><clipPath id="clip0"><path fill="#fff" d="M0 0h32v32H0z"/></clipPath></defs></svg>