<svg width="32" height="32" fill="none" xmlns="http://www.w3.org/2000/svg"><path d="M30.4 3.733H1.6a1.6 1.6 0 00-1.6 1.6v21.334a1.6 1.6 0 001.6 1.6h28.8a1.6 1.6 0 001.6-1.6V5.333a1.6 1.6 0 00-1.6-1.6zm.533 22.934a.533.533 0 01-.533.533H1.6a.533.533 0 01-.533-.533V5.333c0-.294.238-.533.533-.533h28.8c.295 0 .533.239.533.533v21.334z" fill="#29F5C4" fill-opacity=".75"/><path d="M29.38 5.869a.533.533 0 00-.39.122L16.686 16.327a1.067 1.067 0 01-1.372 0L3.01 5.991a.533.533 0 00-.686.817l12.304 10.336a2.13 2.13 0 002.744 0L29.676 6.809a.533.533 0 00-.296-.94zM10.258 17.07a.534.534 0 00-.515.166l-7.466 8a.533.533 0 10.78.728l7.466-8a.533.533 0 00-.265-.893zm11.999.166a.534.534 0 10-.78.728l7.466 8a.533.533 0 00.78-.728l-7.466-8z" fill="#29F5C4" fill-opacity=".75"/></svg>